<?xml version="1.0" encoding="UTF-8"?>
<svg id="Layer_1" xmlns="http://www.w3.org/2000/svg" version="1.1" viewBox="0 0 100 100">
  <!-- Generator: Adobe Illustrator 29.5.1, SVG Export Plug-In . SVG Version: 2.1.0 Build 141)  -->
  <defs>
    <style>
      .st0 {
        fill: #fff;
      }

      .st1 {
        fill: #2a7fff;
      }
    </style>
  </defs>
  <path class="st1" d="M75,15H25c-8.28,0-15,6.72-15,15v25c0,8.28,6.72,15,15,15h4.91v14.91l14.91-14.91h30.19c8.28,0,15-6.72,15-15v-25c0-8.28-6.72-15-15-15Z"/>
  <polygon class="st0" points="67.55 35.48 57.02 35.48 57.02 24.95 42.98 24.95 42.98 35.48 32.45 35.48 32.45 49.52 42.98 49.52 42.98 60.05 57.02 60.05 57.02 49.52 67.55 49.52 67.55 35.48"/>
</svg>